<svg width="48" height="48" viewBox="0 0 48 48" fill="none" xmlns="http://www.w3.org/2000/svg">
<path d="M14.1013 7.0341C9.4273 7.0341 5.62866 10.8432 5.62866 15.5172V32.4834C5.62866 37.1575 9.4273 40.9665 14.1013 40.9665H33.8953C38.5693 40.9665 42.3679 37.1575 42.3679 32.4834V15.5172C42.3679 10.8432 38.5693 7.0341 33.8953 7.0341H14.1013ZM14.1013 9.8618H33.8953C37.052 9.8618 39.5507 12.3604 39.5507 15.5172V32.4834C39.5507 35.6402 37.052 38.1388 33.8953 38.1388H14.1013C10.9446 38.1388 8.44593 35.6402 8.44593 32.4834V15.5172C8.44593 12.3604 10.9446 9.8618 14.1013 9.8618Z" fill="#303030"/>
<path d="M7.03729 15.5172C6.66232 15.5172 6.3027 15.6662 6.03755 15.9313C5.7724 16.1965 5.62344 16.5561 5.62344 16.9311C5.62344 17.306 5.7724 17.6657 6.03755 17.9308C6.3027 18.196 6.66232 18.3449 7.03729 18.3449H40.9593C41.3343 18.3449 41.6939 18.196 41.959 17.9308C42.2242 17.6657 42.3731 17.306 42.3731 16.9311C42.3731 16.5561 42.2242 16.1965 41.959 15.9313C41.6939 15.6662 41.3343 15.5172 40.9593 15.5172H7.03729ZM33.7492 11.2809C33.3742 11.3003 33.0223 11.4678 32.7709 11.7467C32.5195 12.0255 32.3891 12.3928 32.4085 12.7678C32.4278 13.1427 32.5954 13.4946 32.8742 13.7461C33.153 13.9975 33.5203 14.1279 33.8953 14.1086H35.3039C35.4896 14.1086 35.6734 14.072 35.8449 14.001C36.0165 13.9299 36.1723 13.8258 36.3036 13.6945C36.4349 13.5632 36.5391 13.4073 36.6101 13.2358C36.6812 13.0642 36.7177 12.8804 36.7177 12.6947C36.7177 12.5091 36.6812 12.3252 36.6101 12.1537C36.5391 11.9821 36.4349 11.8263 36.3036 11.695C36.1723 11.5637 36.0165 11.4595 35.8449 11.3885C35.6734 11.3174 35.4896 11.2809 35.3039 11.2809H33.8953C33.8466 11.2784 33.7978 11.2784 33.7492 11.2809H33.7492ZM26.6851 11.2809C26.3102 11.2989 25.9577 11.4651 25.7053 11.7429C25.4528 12.0208 25.3211 12.3876 25.3391 12.7625C25.3571 13.1375 25.5233 13.49 25.8012 13.7424C26.079 13.9949 26.4458 14.1266 26.8208 14.1086H28.2399C28.4255 14.1086 28.6094 14.072 28.7809 14.001C28.9524 13.9299 29.1083 13.8258 29.2396 13.6945C29.3709 13.5632 29.475 13.4073 29.5461 13.2358C29.6171 13.0642 29.6537 12.8804 29.6537 12.6947C29.6537 12.5091 29.6171 12.3252 29.5461 12.1537C29.475 11.9821 29.3709 11.8263 29.2396 11.695C29.1083 11.5637 28.9524 11.4595 28.7809 11.3885C28.6094 11.3174 28.4255 11.2809 28.2399 11.2809H26.8208C26.7756 11.2787 26.7303 11.2787 26.6851 11.2809Z" fill="#303030"/>
<path d="M19.7359 15.4963C19.5502 15.4997 19.367 15.5396 19.1967 15.6138C19.0265 15.688 18.8725 15.795 18.7436 15.9288C18.6148 16.0625 18.5135 16.2203 18.4456 16.3932C18.3778 16.566 18.3446 16.7506 18.3481 16.9363V39.5475C18.3481 39.7331 18.3847 39.917 18.4557 40.0885C18.5268 40.2601 18.6309 40.4159 18.7622 40.5472C18.8935 40.6785 19.0494 40.7826 19.2209 40.8537C19.3924 40.9247 19.5763 40.9613 19.762 40.9613C19.9476 40.9613 20.1315 40.9247 20.303 40.8537C20.4746 40.7826 20.6304 40.6785 20.7617 40.5472C20.893 40.4159 20.9971 40.2601 21.0682 40.0885C21.1393 39.917 21.1758 39.7331 21.1758 39.5475V16.9363C21.1794 16.7462 21.1446 16.5574 21.0735 16.381C21.0024 16.2047 20.8965 16.0446 20.762 15.9101C20.6276 15.7757 20.4674 15.6698 20.2911 15.5987C20.1148 15.5276 19.926 15.4928 19.7359 15.4963Z" fill="#303030"/>
<path d="M19.7567 29.6557H40.9593C42.8444 29.6557 42.8444 26.828 40.9593 26.828H19.7567V29.6557Z" fill="#303030"/>
<path d="M30.3372 15.4963C30.1515 15.4997 29.9683 15.5396 29.798 15.6138C29.6278 15.688 29.4738 15.795 29.3449 15.9288C29.216 16.0625 29.1148 16.2203 29.0469 16.3932C28.979 16.566 28.9459 16.7506 28.9494 16.9363V28.2367C28.9494 28.6116 29.0983 28.9713 29.3635 29.2364C29.6286 29.5015 29.9883 29.6505 30.3632 29.6505C30.7382 29.6505 31.0978 29.5015 31.363 29.2364C31.6281 28.9713 31.7771 28.6116 31.7771 28.2367V16.9363C31.7807 16.7462 31.7459 16.5574 31.6748 16.381C31.6037 16.2047 31.4977 16.0446 31.3633 15.9101C31.2289 15.7757 31.0687 15.6698 30.8924 15.5987C30.7161 15.5276 30.5272 15.4928 30.3372 15.4963ZM12.6927 21.1726C12.3177 21.1726 11.9581 21.3216 11.693 21.5867C11.4278 21.8519 11.2789 22.2115 11.2789 22.5865C11.2789 22.9614 11.4278 23.3211 11.693 23.5862C11.9581 23.8514 12.3177 24.0003 12.6927 24.0003H14.1013C14.4763 24.0003 14.8359 23.8514 15.1011 23.5862C15.3662 23.3211 15.5152 22.9614 15.5152 22.5865C15.5152 22.2115 15.3662 21.8519 15.1011 21.5867C14.8359 21.3216 14.4763 21.1726 14.1013 21.1726H12.6927ZM12.5466 26.828C12.1717 26.8474 11.8198 27.015 11.5684 27.2938C11.3169 27.5727 11.1866 27.9399 11.2059 28.3149C11.2253 28.6899 11.3928 29.0418 11.6716 29.2932C11.9505 29.5447 12.3178 29.6751 12.6927 29.6557H14.1013C14.4763 29.6557 14.8359 29.5068 15.1011 29.2416C15.3662 28.9765 15.5152 28.6168 15.5152 28.2419C15.5152 27.8669 15.3662 27.5073 15.1011 27.2421C14.8359 26.977 14.4763 26.828 14.1013 26.828H12.6927C12.644 26.8255 12.5953 26.8255 12.5466 26.828H12.5466ZM12.5466 32.4834C12.1717 32.5028 11.8198 32.6704 11.5684 32.9492C11.3169 33.2281 11.1866 33.5954 11.2059 33.9703C11.2253 34.3453 11.3928 34.6972 11.6716 34.9486C11.9505 35.2001 12.3178 35.3305 12.6927 35.3111H14.1013C14.4763 35.3111 14.8359 35.1622 15.1011 34.897C15.3662 34.6319 15.5152 34.2723 15.5152 33.8973C15.5152 33.5223 15.3662 33.1627 15.1011 32.8975C14.8359 32.6324 14.4763 32.4834 14.1013 32.4834H12.6927C12.644 32.4809 12.5953 32.4809 12.5466 32.4834H12.5466ZM12.5466 11.2809C12.1717 11.3003 11.8198 11.4678 11.5684 11.7467C11.3169 12.0255 11.1866 12.3928 11.2059 12.7678C11.2253 13.1427 11.3928 13.4946 11.6716 13.7461C11.9505 13.9975 12.3178 14.1279 12.6927 14.1086H14.1013C14.287 14.1086 14.4709 14.072 14.6424 14.001C14.8139 13.9299 14.9698 13.8258 15.1011 13.6945C15.2324 13.5632 15.3365 13.4073 15.4076 13.2358C15.4786 13.0642 15.5152 12.8804 15.5152 12.6947C15.5152 12.5091 15.4786 12.3252 15.4076 12.1537C15.3365 11.9821 15.2324 11.8263 15.1011 11.695C14.9698 11.5637 14.8139 11.4595 14.6424 11.3885C14.4709 11.3174 14.287 11.2809 14.1013 11.2809H12.6927C12.644 11.2784 12.5953 11.2784 12.5466 11.2809H12.5466Z" fill="#303030"/>
</svg>
